# xmcd
#
# Track frame offsets:
# 150
# 21891
# 31878
# 43503
# 55079
# 75427
# 89917
# 105132
# 118784
# 132312
# 144178
# 159628
#
# Disc length: 2245 seconds
#
#
# Revision: 0
# Processed by: cddbd v1.5.1PL2 Copyright (c) Steve Scherf et al.
# Submitted via: FreeRIP 2.52 
#
DISCID=9108c30c
DTITLE=David Hamburger - Blues, Ballads and a Pop Song
DYEAR=2006
DGENRE=Blues
TTITLE0=Idle Moments
TTITLE1=The Rag Trade
TTITLE2=Kansas City Lowdown
TTITLE3=She's not There
TTITLE4=Bryant on Six
TTITLE5=Chromatic Nocturne
TTITLE6=Crimson Palace Shuffle
TTITLE7=Harriet the Chariot
TTITLE8=The Nines
TTITLE9=Weehawken or Bust
TTITLE10=Smolderin'
TTITLE11=Ducky
EXTD=
EXTT0=
EXTT1=
EXTT2=
EXTT3=
EXTT4=
EXTT5=
EXTT6=
EXTT7=
EXTT8=
EXTT9=
EXTT10=
EXTT11=
PLAYORDER=
